<svg width="566" height="522" viewBox="0 0 566 522" fill="none" xmlns="http://www.w3.org/2000/svg">
<g opacity="0.08">
<mask id="mask0_1_1892" style="mask-type:alpha" maskUnits="userSpaceOnUse" x="-202" y="-246" width="768" height="768">
<rect width="768" height="768" transform="matrix(-1 0 0 -1 566 522)" fill="url(#paint0_radial_1_1892)"/>
</mask>
<g mask="url(#mask0_1_1892)">
<g clip-path="url(#clip0_1_1892)">
<g clip-path="url(#clip1_1_1892)">
<line x1="565" y1="522" x2="565" y2="-246" stroke="white" stroke-width="2"/>
<line x1="517" y1="522" x2="517" y2="-246" stroke="white" stroke-width="2"/>
<line x1="469" y1="522" x2="469" y2="-246" stroke="white" stroke-width="2"/>
<line x1="421" y1="522" x2="421" y2="-246" stroke="white" stroke-width="2"/>
<line x1="373" y1="522" x2="373" y2="-246" stroke="white" stroke-width="2"/>
<line x1="325" y1="522" x2="325" y2="-246" stroke="white" stroke-width="2"/>
<line x1="277" y1="522" x2="277" y2="-246" stroke="white" stroke-width="2"/>
<line x1="229" y1="522" x2="229" y2="-246" stroke="white" stroke-width="2"/>
<line x1="181" y1="522" x2="181" y2="-246" stroke="white" stroke-width="2"/>
<line x1="133" y1="522" x2="133" y2="-246" stroke="white" stroke-width="2"/>
<line x1="85" y1="522" x2="85" y2="-246" stroke="white" stroke-width="2"/>
<line x1="37" y1="522" x2="37" y2="-246" stroke="white" stroke-width="2"/>
</g>
<rect x="565" y="521" width="766" height="766" transform="rotate(180 565 521)" stroke="white" stroke-width="2"/>
<g clip-path="url(#clip2_1_1892)">
<line x1="566" y1="475" x2="-202" y2="475" stroke="white" stroke-width="2"/>
<line x1="566" y1="427" x2="-202" y2="427" stroke="white" stroke-width="2"/>
<line x1="566" y1="379" x2="-202" y2="379" stroke="white" stroke-width="2"/>
<line x1="566" y1="331" x2="-202" y2="331" stroke="white" stroke-width="2"/>
<line x1="566" y1="283" x2="-202" y2="283" stroke="white" stroke-width="2"/>
<line x1="566" y1="235" x2="-202" y2="235" stroke="white" stroke-width="2"/>
<line x1="566" y1="187" x2="-202" y2="187" stroke="white" stroke-width="2"/>
<line x1="566" y1="139" x2="-202" y2="139" stroke="white" stroke-width="2"/>
<line x1="566" y1="91" x2="-202" y2="91" stroke="white" stroke-width="2"/>
<line x1="566" y1="43" x2="-202" y2="43" stroke="white" stroke-width="2"/>
</g>
<rect x="565" y="521" width="766" height="766" transform="rotate(180 565 521)" stroke="white" stroke-width="2"/>
</g>
</g>
</g>
<defs>
<radialGradient id="paint0_radial_1_1892" cx="0" cy="0" r="1" gradientUnits="userSpaceOnUse" gradientTransform="translate(384 384) rotate(90) scale(384 384)">
<stop/>
<stop offset="1" stop-opacity="0"/>
</radialGradient>
<clipPath id="clip0_1_1892">
<rect width="768" height="768" fill="white" transform="matrix(-1 0 0 -1 566 522)"/>
</clipPath>
<clipPath id="clip1_1_1892">
<rect x="566" y="522" width="768" height="768" transform="rotate(180 566 522)" fill="white"/>
</clipPath>
<clipPath id="clip2_1_1892">
<rect x="566" y="522" width="768" height="768" transform="rotate(180 566 522)" fill="white"/>
</clipPath>
</defs>
</svg>
