<svg width="149" height="40" viewBox="0 0 149 40" fill="none" xmlns="http://www.w3.org/2000/svg">
<path d="M30.0013 24.1667C30.0013 26.9686 29.1704 29.7075 27.6138 32.0372C26.0571 34.3669 23.8446 36.1827 21.256 37.255C18.6674 38.3272 15.8189 38.6077 13.0709 38.0611C10.3228 37.5145 7.79853 36.1653 5.81729 34.184C3.83605 32.2028 2.4868 29.6785 1.94018 26.9304C1.39355 24.1824 1.6741 21.3339 2.74634 18.7453C3.81858 16.1567 5.63436 13.9442 7.96406 12.3875C10.2938 10.8309 13.0327 10 15.8346 10L15.8346 24.1667H30.0013Z" fill="url(#paint0_linear_13_16)"/>
<path d="M38.3333 12.0837C38.3333 17.8366 33.6695 22.5003 27.9166 22.5003H17.5V12.0837C17.5 6.33071 22.1637 1.66699 27.9166 1.66699C33.6695 1.66699 38.3333 6.33071 38.3333 12.0837Z" fill="url(#paint1_linear_13_16)"/>
<path d="M53.672 12.292H56.422V28H53.672V12.292ZM59.663 16.626H62.039V18.21H62.105C62.2957 17.9313 62.501 17.6747 62.721 17.44C62.941 17.2053 63.183 17.0073 63.447 16.846C63.7257 16.6847 64.041 16.56 64.393 16.472C64.745 16.3693 65.1484 16.318 65.603 16.318C66.2924 16.318 66.9304 16.472 67.517 16.78C68.1184 17.088 68.5437 17.5647 68.793 18.21C69.2184 17.6233 69.7097 17.1613 70.267 16.824C70.8244 16.4867 71.521 16.318 72.357 16.318C73.5597 16.318 74.491 16.6113 75.151 17.198C75.8257 17.7847 76.163 18.7673 76.163 20.146V28H73.655V21.356C73.655 20.9013 73.6404 20.4907 73.611 20.124C73.5817 19.7427 73.4937 19.42 73.347 19.156C73.215 18.8773 73.0097 18.6647 72.731 18.518C72.4524 18.3713 72.071 18.298 71.587 18.298C70.7364 18.298 70.1204 18.562 69.739 19.09C69.3577 19.618 69.167 20.366 69.167 21.334V28H66.659V20.696C66.659 19.904 66.5124 19.31 66.219 18.914C65.9404 18.5033 65.4197 18.298 64.657 18.298C64.3344 18.298 64.019 18.364 63.711 18.496C63.4177 18.628 63.1537 18.8187 62.919 19.068C62.699 19.3173 62.5157 19.6253 62.369 19.992C62.237 20.3587 62.171 20.7767 62.171 21.246V28H59.663V16.626ZM88.5516 25.47C88.5516 25.778 88.5883 25.998 88.6616 26.13C88.7496 26.262 88.911 26.328 89.1456 26.328C89.219 26.328 89.307 26.328 89.4096 26.328C89.5123 26.328 89.6296 26.3133 89.7616 26.284V28.022C89.6736 28.0513 89.5563 28.0807 89.4096 28.11C89.2776 28.154 89.1383 28.1907 88.9916 28.22C88.845 28.2493 88.6983 28.2713 88.5516 28.286C88.405 28.3007 88.2803 28.308 88.1776 28.308C87.6643 28.308 87.239 28.2053 86.9016 28C86.5643 27.7947 86.3443 27.4353 86.2416 26.922C85.743 27.406 85.127 27.758 84.3936 27.978C83.675 28.198 82.9783 28.308 82.3036 28.308C81.7903 28.308 81.299 28.2347 80.8296 28.088C80.3603 27.956 79.9423 27.758 79.5756 27.494C79.2236 27.2153 78.9376 26.8707 78.7176 26.46C78.5123 26.0347 78.4096 25.5433 78.4096 24.986C78.4096 24.282 78.5343 23.71 78.7836 23.27C79.0476 22.83 79.385 22.4853 79.7956 22.236C80.221 21.9867 80.6903 21.8107 81.2036 21.708C81.7316 21.5907 82.2596 21.5027 82.7876 21.444C83.2423 21.356 83.675 21.2973 84.0856 21.268C84.4963 21.224 84.8556 21.158 85.1636 21.07C85.4863 20.982 85.7356 20.85 85.9116 20.674C86.1023 20.4833 86.1976 20.2047 86.1976 19.838C86.1976 19.5153 86.117 19.2513 85.9556 19.046C85.809 18.8407 85.6183 18.6867 85.3836 18.584C85.1636 18.4667 84.9143 18.3933 84.6356 18.364C84.357 18.32 84.093 18.298 83.8436 18.298C83.1396 18.298 82.5603 18.4447 82.1056 18.738C81.651 19.0313 81.3943 19.486 81.3356 20.102H78.8276C78.8716 19.3687 79.0476 18.76 79.3556 18.276C79.6636 17.792 80.0523 17.4033 80.5216 17.11C81.0056 16.8167 81.5483 16.6113 82.1496 16.494C82.751 16.3767 83.367 16.318 83.9976 16.318C84.555 16.318 85.105 16.3767 85.6476 16.494C86.1903 16.6113 86.6743 16.802 87.0996 17.066C87.5396 17.33 87.8916 17.6747 88.1556 18.1C88.4196 18.5107 88.5516 19.0167 88.5516 19.618V25.47ZM86.0436 22.302C85.6623 22.5513 85.193 22.7053 84.6356 22.764C84.0783 22.808 83.521 22.8813 82.9636 22.984C82.6996 23.028 82.443 23.094 82.1936 23.182C81.9443 23.2553 81.7243 23.3653 81.5336 23.512C81.343 23.644 81.189 23.8273 81.0716 24.062C80.969 24.282 80.9176 24.5533 80.9176 24.876C80.9176 25.1547 80.9983 25.3893 81.1596 25.58C81.321 25.7707 81.5116 25.9247 81.7316 26.042C81.9663 26.1447 82.2156 26.218 82.4796 26.262C82.7583 26.306 83.0076 26.328 83.2276 26.328C83.5063 26.328 83.807 26.2913 84.1296 26.218C84.4523 26.1447 84.753 26.02 85.0316 25.844C85.325 25.668 85.567 25.448 85.7576 25.184C85.9483 24.9053 86.0436 24.568 86.0436 24.172V22.302ZM101.986 27.406C101.986 29.122 101.502 30.398 100.534 31.234C99.5809 32.0847 98.2022 32.51 96.3982 32.51C95.8262 32.51 95.2469 32.4513 94.6602 32.334C94.0882 32.2167 93.5602 32.0187 93.0762 31.74C92.6069 31.4613 92.2109 31.0947 91.8882 30.64C91.5656 30.1853 91.3749 29.628 91.3162 28.968H93.8242C93.8976 29.32 94.0222 29.606 94.1982 29.826C94.3742 30.046 94.5796 30.2147 94.8142 30.332C95.0636 30.464 95.3349 30.5447 95.6282 30.574C95.9216 30.618 96.2296 30.64 96.5522 30.64C97.5642 30.64 98.3049 30.3907 98.7742 29.892C99.2436 29.3933 99.4782 28.6747 99.4782 27.736V25.998H99.4342C99.0822 26.6287 98.5982 27.12 97.9822 27.472C97.3809 27.824 96.7282 28 96.0242 28C95.1149 28 94.3376 27.846 93.6922 27.538C93.0616 27.2153 92.5336 26.7827 92.1082 26.24C91.6976 25.6827 91.3969 25.0447 91.2062 24.326C91.0156 23.6073 90.9202 22.8373 90.9202 22.016C90.9202 21.2533 91.0376 20.5273 91.2722 19.838C91.5069 19.1487 91.8442 18.5473 92.2842 18.034C92.7242 17.506 93.2596 17.088 93.8902 16.78C94.5356 16.472 95.2616 16.318 96.0682 16.318C96.7869 16.318 97.4469 16.472 98.0482 16.78C98.6496 17.0733 99.1116 17.5427 99.4342 18.188H99.4782V16.626H101.986V27.406ZM96.4202 26.02C96.9776 26.02 97.4469 25.91 97.8282 25.69C98.2242 25.4553 98.5396 25.1547 98.7742 24.788C99.0236 24.4067 99.1996 23.9813 99.3022 23.512C99.4196 23.028 99.4782 22.544 99.4782 22.06C99.4782 21.576 99.4196 21.1067 99.3022 20.652C99.1849 20.1973 99.0016 19.794 98.7522 19.442C98.5176 19.09 98.2022 18.8113 97.8062 18.606C97.4249 18.4007 96.9629 18.298 96.4202 18.298C95.8629 18.298 95.3936 18.4153 95.0122 18.65C94.6309 18.8847 94.3229 19.1927 94.0882 19.574C93.8536 19.9407 93.6849 20.366 93.5822 20.85C93.4796 21.3193 93.4282 21.7887 93.4282 22.258C93.4282 22.7273 93.4869 23.1893 93.6042 23.644C93.7216 24.084 93.8976 24.48 94.1322 24.832C94.3816 25.184 94.6896 25.47 95.0562 25.69C95.4376 25.91 95.8922 26.02 96.4202 26.02ZM112.541 21.312C112.512 20.916 112.424 20.5347 112.277 20.168C112.145 19.8013 111.955 19.486 111.705 19.222C111.471 18.9433 111.177 18.7233 110.825 18.562C110.488 18.386 110.107 18.298 109.681 18.298C109.241 18.298 108.838 18.3787 108.471 18.54C108.119 18.6867 107.811 18.8993 107.547 19.178C107.298 19.442 107.093 19.7573 106.931 20.124C106.785 20.4907 106.704 20.8867 106.689 21.312H112.541ZM106.689 22.962C106.689 23.402 106.748 23.8273 106.865 24.238C106.997 24.6487 107.188 25.008 107.437 25.316C107.687 25.624 108.002 25.8733 108.383 26.064C108.765 26.24 109.219 26.328 109.747 26.328C110.481 26.328 111.067 26.174 111.507 25.866C111.962 25.5433 112.299 25.0667 112.519 24.436H114.895C114.763 25.052 114.536 25.602 114.213 26.086C113.891 26.57 113.502 26.9807 113.047 27.318C112.593 27.6407 112.079 27.8827 111.507 28.044C110.95 28.22 110.363 28.308 109.747 28.308C108.853 28.308 108.061 28.1613 107.371 27.868C106.682 27.5747 106.095 27.164 105.611 26.636C105.142 26.108 104.783 25.4773 104.533 24.744C104.299 24.0107 104.181 23.204 104.181 22.324C104.181 21.5173 104.306 20.7547 104.555 20.036C104.819 19.3027 105.186 18.6647 105.655 18.122C106.139 17.5647 106.719 17.1247 107.393 16.802C108.068 16.4793 108.831 16.318 109.681 16.318C110.576 16.318 111.375 16.5087 112.079 16.89C112.798 17.2567 113.392 17.748 113.861 18.364C114.331 18.98 114.668 19.6913 114.873 20.498C115.093 21.29 115.152 22.1113 115.049 22.962H106.689ZM119.068 24.348C119.141 25.0813 119.42 25.5947 119.904 25.888C120.388 26.1813 120.967 26.328 121.642 26.328C121.877 26.328 122.141 26.3133 122.434 26.284C122.742 26.24 123.028 26.1667 123.292 26.064C123.556 25.9613 123.769 25.8147 123.93 25.624C124.106 25.4187 124.187 25.1547 124.172 24.832C124.157 24.5093 124.04 24.2453 123.82 24.04C123.6 23.8347 123.314 23.6733 122.962 23.556C122.625 23.424 122.236 23.314 121.796 23.226C121.356 23.138 120.909 23.0427 120.454 22.94C119.985 22.8373 119.53 22.7127 119.09 22.566C118.665 22.4193 118.276 22.2213 117.924 21.972C117.587 21.7227 117.315 21.4073 117.11 21.026C116.905 20.63 116.802 20.146 116.802 19.574C116.802 18.958 116.949 18.4447 117.242 18.034C117.55 17.6087 117.931 17.2713 118.386 17.022C118.855 16.758 119.369 16.5747 119.926 16.472C120.498 16.3693 121.041 16.318 121.554 16.318C122.141 16.318 122.698 16.384 123.226 16.516C123.769 16.6333 124.253 16.8313 124.678 17.11C125.118 17.3887 125.477 17.7553 125.756 18.21C126.049 18.65 126.233 19.1853 126.306 19.816H123.688C123.571 19.2147 123.292 18.8113 122.852 18.606C122.427 18.4007 121.935 18.298 121.378 18.298C121.202 18.298 120.989 18.3127 120.74 18.342C120.505 18.3713 120.278 18.43 120.058 18.518C119.853 18.5913 119.677 18.7087 119.53 18.87C119.383 19.0167 119.31 19.2147 119.31 19.464C119.31 19.772 119.413 20.0213 119.618 20.212C119.838 20.4027 120.117 20.564 120.454 20.696C120.806 20.8133 121.202 20.916 121.642 21.004C122.082 21.092 122.537 21.1873 123.006 21.29C123.461 21.3927 123.908 21.5173 124.348 21.664C124.788 21.8107 125.177 22.0087 125.514 22.258C125.866 22.5073 126.145 22.8227 126.35 23.204C126.57 23.5853 126.68 24.0547 126.68 24.612C126.68 25.2867 126.526 25.8587 126.218 26.328C125.91 26.7973 125.507 27.1787 125.008 27.472C124.524 27.7653 123.981 27.978 123.38 28.11C122.779 28.242 122.185 28.308 121.598 28.308C120.879 28.308 120.212 28.2273 119.596 28.066C118.995 27.9047 118.467 27.6627 118.012 27.34C117.572 27.0027 117.22 26.592 116.956 26.108C116.707 25.6093 116.575 25.0227 116.56 24.348H119.068ZM133.358 12.292H136.284L142.334 28H139.386L137.912 23.842H131.642L130.168 28H127.33L133.358 12.292ZM132.39 21.752H137.186L134.832 14.998H134.766L132.39 21.752ZM144.05 12.292H146.8V28H144.05V12.292Z" fill="white" fill-opacity="0.8"/>
<defs>
<linearGradient id="paint0_linear_13_16" x1="1.47981" y1="12.7408" x2="26.147" y2="37.9562" gradientUnits="userSpaceOnUse">
<stop stop-color="#F9A65A"/>
<stop offset="0.505208" stop-color="#FF74AD"/>
<stop offset="1" stop-color="#9A6BFE"/>
</linearGradient>
<linearGradient id="paint1_linear_13_16" x1="17.3616" y1="3.68229" x2="35.4993" y2="22.223" gradientUnits="userSpaceOnUse">
<stop stop-color="#F9A65A"/>
<stop offset="0.505208" stop-color="#FF74AD"/>
<stop offset="1" stop-color="#9A6BFE"/>
</linearGradient>
</defs>
</svg>
