<svg width="81" height="80" viewBox="0 0 81 80" fill="none" xmlns="http://www.w3.org/2000/svg">
<g filter="url(#filter0_ii_1_10000)">
<rect x="0.5" width="80" height="80" rx="17.1429" fill="#342463"/>
<rect x="1.35714" y="0.857143" width="78.2857" height="78.2857" rx="16.2857" stroke="url(#paint0_linear_1_10000)" stroke-width="1.71429"/>
<path fill-rule="evenodd" clip-rule="evenodd" d="M43.3934 50.752L55.0874 39.092C56.7714 37.414 57.6134 36.574 58.0554 35.508C58.4994 34.438 58.4994 33.252 58.4994 30.878V29.744C58.4994 26.092 58.4994 24.266 57.3614 23.132C56.2234 21.998 54.3934 21.998 50.7314 21.998H49.5914C47.2114 21.998 46.0214 21.998 44.9514 22.44C43.8794 22.882 43.0374 23.722 41.3514 25.4L29.6594 37.06C27.6914 39.02 26.4714 40.238 25.9994 41.412C25.8522 41.7685 25.7761 42.1504 25.7754 42.536C25.7754 44.14 27.0694 45.432 29.6594 48.014L30.0074 48.36L34.0834 44.222C34.2217 44.0817 34.3863 43.9699 34.5677 43.8931C34.7492 43.8163 34.944 43.7761 35.1411 43.7746C35.3381 43.7731 35.5335 43.8104 35.7161 43.8845C35.8988 43.9585 36.065 44.0678 36.2054 44.206C36.3458 44.3443 36.4575 44.5089 36.5343 44.6904C36.6111 44.8719 36.6514 45.0667 36.6529 45.2637C36.6544 45.4608 36.617 45.6562 36.543 45.8388C36.4689 46.0214 36.3597 46.1877 36.2214 46.328L32.1314 50.478L32.4054 50.752C34.9954 53.332 36.2914 54.624 37.8994 54.624C38.2554 54.624 38.5954 54.562 38.9374 54.436C40.1434 53.992 41.3754 52.764 43.3934 50.752ZM48.8874 37.06C48.1579 37.7868 47.1701 38.1949 46.1404 38.1949C45.1106 38.1949 44.1229 37.7868 43.3934 37.06C43.0329 36.701 42.7468 36.2743 42.5516 35.8045C42.3564 35.3346 42.2559 34.8308 42.2559 34.322C42.2559 33.8133 42.3564 33.3095 42.5516 32.8396C42.7468 32.3697 43.0329 31.9431 43.3934 31.584C44.1229 30.8572 45.1106 30.4492 46.1404 30.4492C47.1701 30.4492 48.1579 30.8572 48.8874 31.584C49.2479 31.9431 49.534 32.3697 49.7292 32.8396C49.9244 33.3095 50.0249 33.8133 50.0249 34.322C50.0249 34.8308 49.9244 35.3346 49.7292 35.8045C49.534 36.2743 49.2479 36.701 48.8874 37.06Z" fill="white" fill-opacity="0.8"/>
<path opacity="0.5" d="M32.5676 29.923L27.4816 34.997C26.5476 35.929 25.6896 36.783 25.0116 37.557C24.5534 38.0678 24.1392 38.6164 23.7736 39.197L23.7256 39.147L23.5356 38.959C22.6508 38.1014 21.611 37.42 20.4716 36.951L20.2256 36.851L19.4676 36.551C19.2315 36.4579 19.0223 36.3076 18.859 36.1134C18.6956 35.9193 18.5831 35.6875 18.5317 35.439C18.4803 35.1906 18.4916 34.9332 18.5645 34.6902C18.6375 34.4471 18.7698 34.2261 18.9496 34.047C21.1896 31.811 23.8796 29.129 25.1796 28.591C26.3081 28.1174 27.5441 27.9591 28.7556 28.133C29.8476 28.295 30.8796 28.857 32.5676 29.923ZM41.2536 56.623C41.6636 57.039 41.9336 57.333 42.1816 57.647C42.5056 58.061 42.7956 58.501 43.0496 58.963C43.3336 59.483 43.5556 60.037 43.9976 61.147C44.0847 61.3566 44.2221 61.5415 44.3976 61.6853C44.5732 61.8292 44.7814 61.9276 45.004 61.9719C45.2266 62.0162 45.4567 62.005 45.6739 61.9392C45.8912 61.8735 46.0889 61.7553 46.2496 61.595L46.4176 61.429C48.6576 59.195 51.3476 56.513 51.8876 55.219C52.3619 54.0949 52.5203 52.8626 52.3456 51.655C52.1836 50.565 51.6216 49.535 50.5516 47.851L45.4476 52.939C44.4916 53.893 43.6156 54.767 42.8216 55.451C42.3476 55.863 41.8276 56.271 41.2536 56.623Z" fill="white" fill-opacity="0.8"/>
</g>
<defs>
<filter id="filter0_ii_1_10000" x="0.5" y="-3.33333" width="90.33" height="83.3333" filterUnits="userSpaceOnUse" color-interpolation-filters="sRGB">
<feFlood flood-opacity="0" result="BackgroundImageFix"/>
<feBlend mode="normal" in="SourceGraphic" in2="BackgroundImageFix" result="shape"/>
<feColorMatrix in="SourceAlpha" type="matrix" values="0 0 0 0 0 0 0 0 0 0 0 0 0 0 0 0 0 0 127 0" result="hardAlpha"/>
<feOffset dy="-3.33333"/>
<feGaussianBlur stdDeviation="12.5"/>
<feComposite in2="hardAlpha" operator="arithmetic" k2="-1" k3="1"/>
<feColorMatrix type="matrix" values="0 0 0 0 0.096274 0 0 0 0 0.0796875 0 0 0 0 0.1875 0 0 0 1 0"/>
<feBlend mode="normal" in2="shape" result="effect1_innerShadow_1_10000"/>
<feColorMatrix in="SourceAlpha" type="matrix" values="0 0 0 0 0 0 0 0 0 0 0 0 0 0 0 0 0 0 127 0" result="hardAlpha"/>
<feOffset dx="10.33"/>
<feGaussianBlur stdDeviation="12.5"/>
<feComposite in2="hardAlpha" operator="arithmetic" k2="-1" k3="1"/>
<feColorMatrix type="matrix" values="0 0 0 0 0 0 0 0 0 0 0 0 0 0 0 0 0 0 1 0"/>
<feBlend mode="normal" in2="effect1_innerShadow_1_10000" result="effect2_innerShadow_1_10000"/>
</filter>
<linearGradient id="paint0_linear_1_10000" x1="40.5" y1="0" x2="40.5" y2="80" gradientUnits="userSpaceOnUse">
<stop stop-color="#463A60"/>
<stop offset="1" stop-color="#FF74AD" stop-opacity="0"/>
</linearGradient>
</defs>
</svg>
