<svg width="52" height="52" viewBox="0 0 52 52" fill="none" xmlns="http://www.w3.org/2000/svg">
<g filter="url(#filter0_ii_1_2025)">
<rect width="52" height="52" rx="11.1429" fill="#342463"/>
<rect x="0.557143" y="0.557143" width="50.8857" height="50.8857" rx="10.5857" stroke="url(#paint0_linear_1_2025)" stroke-width="1.11429"/>
<path fill-rule="evenodd" clip-rule="evenodd" d="M27.8794 32.9889L35.4805 25.4099C36.5751 24.3192 37.1224 23.7732 37.4097 23.0803C37.6983 22.3848 37.6983 21.6139 37.6983 20.0708V19.3337C37.6983 16.9599 37.6983 15.773 36.9586 15.0359C36.2189 14.2988 35.0294 14.2988 32.6491 14.2988H31.9081C30.3611 14.2988 29.5876 14.2988 28.8921 14.5861C28.1953 14.8734 27.648 15.4194 26.5521 16.5101L18.9523 24.0891C17.6731 25.3631 16.8801 26.1548 16.5733 26.9179C16.4777 27.1496 16.4282 27.3978 16.4277 27.6485C16.4277 28.6911 17.2688 29.5309 18.9523 31.2092L19.1785 31.4341L21.8279 28.7444C21.9178 28.6532 22.0248 28.5805 22.1428 28.5306C22.2607 28.4807 22.3874 28.4545 22.5154 28.4536C22.6435 28.4526 22.7705 28.4769 22.8892 28.525C23.0079 28.5731 23.116 28.6441 23.2072 28.734C23.2985 28.8239 23.3711 28.9309 23.421 29.0488C23.4709 29.1668 23.4971 29.2934 23.4981 29.4215C23.4991 29.5496 23.4748 29.6766 23.4267 29.7953C23.3785 29.914 23.3075 30.0221 23.2176 30.1133L20.5591 32.8108L20.7372 32.9889C22.4207 34.6659 23.2631 35.5057 24.3083 35.5057C24.5397 35.5057 24.7607 35.4654 24.983 35.3835C25.7669 35.0949 26.5677 34.2967 27.8794 32.9889ZM31.4505 24.0891C30.9764 24.5615 30.3343 24.8268 29.665 24.8268C28.9957 24.8268 28.3536 24.5615 27.8794 24.0891C27.6451 23.8558 27.4591 23.5784 27.3323 23.273C27.2054 22.9676 27.1401 22.6401 27.1401 22.3094C27.1401 21.9787 27.2054 21.6512 27.3323 21.3458C27.4591 21.0404 27.6451 20.7631 27.8794 20.5297C28.3536 20.0573 28.9957 19.792 29.665 19.792C30.3343 19.792 30.9764 20.0573 31.4505 20.5297C31.6849 20.7631 31.8708 21.0404 31.9977 21.3458C32.1246 21.6512 32.1899 21.9787 32.1899 22.3094C32.1899 22.6401 32.1246 22.9676 31.9977 23.273C31.8708 23.5784 31.6849 23.8558 31.4505 24.0891Z" fill="white" fill-opacity="0.8"/>
<path opacity="0.5" d="M20.8431 19.45L17.5372 22.7481C16.9301 23.3539 16.3724 23.909 15.9317 24.4121C15.6339 24.7441 15.3647 25.1007 15.127 25.4781L15.0958 25.4456L14.9723 25.3234C14.3973 24.766 13.7214 24.323 12.9807 24.0182L12.8208 23.9532L12.3281 23.7582C12.1747 23.6977 12.0387 23.6 11.9325 23.4738C11.8263 23.3476 11.7532 23.1969 11.7198 23.0354C11.6864 22.8739 11.6937 22.7066 11.7412 22.5487C11.7886 22.3907 11.8746 22.247 11.9914 22.1306C13.4474 20.6772 15.1959 18.9339 16.0409 18.5842C16.7745 18.2764 17.5779 18.1735 18.3653 18.2865C19.0751 18.3918 19.7459 18.7571 20.8431 19.45ZM26.489 36.805C26.7555 37.0754 26.931 37.2665 27.0922 37.4706C27.3028 37.7397 27.4913 38.0257 27.6564 38.326C27.841 38.664 27.9853 39.0241 28.2726 39.7456C28.3293 39.8818 28.4186 40.002 28.5327 40.0955C28.6468 40.189 28.7822 40.253 28.9268 40.2818C29.0715 40.3106 29.2211 40.3033 29.3623 40.2606C29.5035 40.2178 29.632 40.141 29.7364 40.0368L29.8456 39.9289C31.3016 38.4768 33.0501 36.7335 33.4011 35.8924C33.7095 35.1617 33.8124 34.3607 33.6988 33.5758C33.5935 32.8673 33.2282 32.1978 32.5327 31.1032L29.2151 34.4104C28.5937 35.0305 28.0243 35.5986 27.5082 36.0432C27.2001 36.311 26.8621 36.5762 26.489 36.805Z" fill="white" fill-opacity="0.8"/>
</g>
<defs>
<filter id="filter0_ii_1_2025" x="0" y="-2.16667" width="58.7145" height="54.1667" filterUnits="userSpaceOnUse" color-interpolation-filters="sRGB">
<feFlood flood-opacity="0" result="BackgroundImageFix"/>
<feBlend mode="normal" in="SourceGraphic" in2="BackgroundImageFix" result="shape"/>
<feColorMatrix in="SourceAlpha" type="matrix" values="0 0 0 0 0 0 0 0 0 0 0 0 0 0 0 0 0 0 127 0" result="hardAlpha"/>
<feOffset dy="-2.16667"/>
<feGaussianBlur stdDeviation="8.125"/>
<feComposite in2="hardAlpha" operator="arithmetic" k2="-1" k3="1"/>
<feColorMatrix type="matrix" values="0 0 0 0 0.096274 0 0 0 0 0.0796875 0 0 0 0 0.1875 0 0 0 1 0"/>
<feBlend mode="normal" in2="shape" result="effect1_innerShadow_1_2025"/>
<feColorMatrix in="SourceAlpha" type="matrix" values="0 0 0 0 0 0 0 0 0 0 0 0 0 0 0 0 0 0 127 0" result="hardAlpha"/>
<feOffset dx="6.7145"/>
<feGaussianBlur stdDeviation="8.125"/>
<feComposite in2="hardAlpha" operator="arithmetic" k2="-1" k3="1"/>
<feColorMatrix type="matrix" values="0 0 0 0 0 0 0 0 0 0 0 0 0 0 0 0 0 0 1 0"/>
<feBlend mode="normal" in2="effect1_innerShadow_1_2025" result="effect2_innerShadow_1_2025"/>
</filter>
<linearGradient id="paint0_linear_1_2025" x1="26" y1="0" x2="26" y2="52" gradientUnits="userSpaceOnUse">
<stop stop-color="#463A60"/>
<stop offset="1" stop-color="#FF74AD" stop-opacity="0"/>
</linearGradient>
</defs>
</svg>
